<mxfile host="app.diagrams.net" agent="Mozilla/5.0 (Macintosh; Intel Mac OS X 10_15_7) AppleWebKit/537.36 (KHTML, like Gecko) Chrome/125.0.0.0 Safari/537.36" version="24.7.5">
  <diagram name="第 1 页" id="XF81UmgwEpL8YA5Gjhee">
    <mxGraphModel dx="2013" dy="1515" grid="1" gridSize="10" guides="1" tooltips="1" connect="1" arrows="1" fold="1" page="1" pageScale="1" pageWidth="827" pageHeight="1169" math="0" shadow="0">
      <root>
        <mxCell id="0" />
        <mxCell id="1" parent="0" />
        <mxCell id="aauoK8OYN8aR4GPgjqtQ-1" value="" style="rounded=1;whiteSpace=wrap;html=1;strokeWidth=2;dashed=1;" vertex="1" parent="1">
          <mxGeometry x="950" y="10" width="1020" height="410" as="geometry" />
        </mxCell>
        <mxCell id="aauoK8OYN8aR4GPgjqtQ-2" style="edgeStyle=orthogonalEdgeStyle;rounded=0;orthogonalLoop=1;jettySize=auto;html=1;exitX=1;exitY=0.5;exitDx=0;exitDy=0;entryX=0;entryY=0.5;entryDx=0;entryDy=0;" edge="1" parent="1" source="aauoK8OYN8aR4GPgjqtQ-3" target="aauoK8OYN8aR4GPgjqtQ-5">
          <mxGeometry relative="1" as="geometry" />
        </mxCell>
        <mxCell id="aauoK8OYN8aR4GPgjqtQ-3" value="&lt;font style=&quot;font-size: 30px;&quot; face=&quot;Times New Roman&quot;&gt;CNN_k3&lt;/font&gt;" style="rounded=1;whiteSpace=wrap;html=1;fillColor=#D3C8D9;strokeColor=#9673a6;" vertex="1" parent="1">
          <mxGeometry x="1201" y="89.5" width="130" height="70" as="geometry" />
        </mxCell>
        <mxCell id="aauoK8OYN8aR4GPgjqtQ-31" style="edgeStyle=orthogonalEdgeStyle;rounded=0;orthogonalLoop=1;jettySize=auto;html=1;exitX=1;exitY=0.5;exitDx=0;exitDy=0;endArrow=none;endFill=0;" edge="1" parent="1">
          <mxGeometry relative="1" as="geometry">
            <mxPoint x="1650" y="220" as="targetPoint" />
            <mxPoint x="1600" y="124.5" as="sourcePoint" />
            <Array as="points">
              <mxPoint x="1650" y="125" />
              <mxPoint x="1650" y="220" />
            </Array>
          </mxGeometry>
        </mxCell>
        <mxCell id="aauoK8OYN8aR4GPgjqtQ-5" value="&lt;font style=&quot;font-size: 30px;&quot; face=&quot;Times New Roman&quot;&gt;MaxPool&lt;/font&gt;" style="rounded=1;whiteSpace=wrap;html=1;fillColor=#D3C8D9;strokeColor=#9673a6;" vertex="1" parent="1">
          <mxGeometry x="1450" y="89.5" width="150" height="70" as="geometry" />
        </mxCell>
        <mxCell id="aauoK8OYN8aR4GPgjqtQ-6" value="" style="group" vertex="1" connectable="0" parent="1">
          <mxGeometry x="980" y="121" width="45" height="200" as="geometry" />
        </mxCell>
        <mxCell id="aauoK8OYN8aR4GPgjqtQ-7" value="" style="rounded=1;whiteSpace=wrap;html=1;direction=south;container=0;" vertex="1" parent="aauoK8OYN8aR4GPgjqtQ-6">
          <mxGeometry y="-1" width="45" height="200" as="geometry" />
        </mxCell>
        <mxCell id="aauoK8OYN8aR4GPgjqtQ-8" value="" style="ellipse;whiteSpace=wrap;html=1;aspect=fixed;fillColor=#afc8ea;direction=south;container=0;" vertex="1" parent="aauoK8OYN8aR4GPgjqtQ-6">
          <mxGeometry x="7" y="46" width="30" height="30" as="geometry" />
        </mxCell>
        <mxCell id="aauoK8OYN8aR4GPgjqtQ-9" value="" style="ellipse;whiteSpace=wrap;html=1;aspect=fixed;fillColor=#fef1e0;direction=south;container=0;" vertex="1" parent="aauoK8OYN8aR4GPgjqtQ-6">
          <mxGeometry x="7" y="81" width="30" height="30" as="geometry" />
        </mxCell>
        <mxCell id="aauoK8OYN8aR4GPgjqtQ-10" value="" style="ellipse;whiteSpace=wrap;html=1;aspect=fixed;fillColor=#ffd9d0;direction=south;container=0;" vertex="1" parent="aauoK8OYN8aR4GPgjqtQ-6">
          <mxGeometry x="7" y="118" width="30" height="30" as="geometry" />
        </mxCell>
        <mxCell id="aauoK8OYN8aR4GPgjqtQ-11" value="" style="ellipse;whiteSpace=wrap;html=1;aspect=fixed;fillColor=#c8e3ca;direction=south;container=0;" vertex="1" parent="aauoK8OYN8aR4GPgjqtQ-6">
          <mxGeometry x="7" y="11" width="30" height="30" as="geometry" />
        </mxCell>
        <mxCell id="aauoK8OYN8aR4GPgjqtQ-12" value="" style="ellipse;whiteSpace=wrap;html=1;aspect=fixed;fillColor=#e1d5e7;strokeColor=#9673a6;container=0;" vertex="1" parent="aauoK8OYN8aR4GPgjqtQ-6">
          <mxGeometry x="7" y="156" width="30" height="30" as="geometry" />
        </mxCell>
        <mxCell id="aauoK8OYN8aR4GPgjqtQ-13" value="&lt;font style=&quot;font-size: 25px;&quot;&gt;Y&lt;sub&gt;_slot&lt;/sub&gt;&lt;/font&gt;" style="rounded=1;whiteSpace=wrap;html=1;" vertex="1" parent="1">
          <mxGeometry x="1824" y="189.5" width="120" height="60" as="geometry" />
        </mxCell>
        <mxCell id="aauoK8OYN8aR4GPgjqtQ-14" value="&lt;font style=&quot;font-size: 30px;&quot; face=&quot;Times New Roman&quot;&gt;Local Textual Aggregator&lt;/font&gt;" style="text;html=1;align=center;verticalAlign=middle;resizable=0;points=[];autosize=1;strokeColor=none;fillColor=none;" vertex="1" parent="1">
          <mxGeometry x="1324" y="21" width="330" height="50" as="geometry" />
        </mxCell>
        <mxCell id="aauoK8OYN8aR4GPgjqtQ-16" style="edgeStyle=orthogonalEdgeStyle;rounded=0;orthogonalLoop=1;jettySize=auto;html=1;exitX=1;exitY=0.5;exitDx=0;exitDy=0;entryX=0;entryY=0.5;entryDx=0;entryDy=0;" edge="1" parent="1" source="aauoK8OYN8aR4GPgjqtQ-17" target="aauoK8OYN8aR4GPgjqtQ-21">
          <mxGeometry relative="1" as="geometry" />
        </mxCell>
        <mxCell id="aauoK8OYN8aR4GPgjqtQ-17" value="&lt;font style=&quot;font-size: 30px;&quot; face=&quot;Times New Roman&quot;&gt;CNN_k3&lt;/font&gt;" style="rounded=1;whiteSpace=wrap;html=1;fillColor=#D3C8D9;strokeColor=#9673a6;" vertex="1" parent="1">
          <mxGeometry x="1200" y="184.5" width="130" height="70" as="geometry" />
        </mxCell>
        <mxCell id="aauoK8OYN8aR4GPgjqtQ-18" style="edgeStyle=orthogonalEdgeStyle;rounded=0;orthogonalLoop=1;jettySize=auto;html=1;exitX=1;exitY=0.5;exitDx=0;exitDy=0;entryX=0;entryY=0.5;entryDx=0;entryDy=0;" edge="1" parent="1" source="aauoK8OYN8aR4GPgjqtQ-19" target="aauoK8OYN8aR4GPgjqtQ-23">
          <mxGeometry relative="1" as="geometry" />
        </mxCell>
        <mxCell id="aauoK8OYN8aR4GPgjqtQ-19" value="&lt;font style=&quot;font-size: 30px;&quot; face=&quot;Times New Roman&quot;&gt;CNN_k3&lt;/font&gt;" style="rounded=1;whiteSpace=wrap;html=1;fillColor=#D3C8D9;strokeColor=#9673a6;" vertex="1" parent="1">
          <mxGeometry x="1201" y="277.5" width="130" height="70" as="geometry" />
        </mxCell>
        <mxCell id="aauoK8OYN8aR4GPgjqtQ-29" style="edgeStyle=orthogonalEdgeStyle;rounded=0;orthogonalLoop=1;jettySize=auto;html=1;exitX=1;exitY=0.5;exitDx=0;exitDy=0;entryX=0;entryY=0.5;entryDx=0;entryDy=0;" edge="1" parent="1">
          <mxGeometry relative="1" as="geometry">
            <mxPoint x="1600" y="220" as="sourcePoint" />
            <mxPoint x="1824" y="219.5" as="targetPoint" />
          </mxGeometry>
        </mxCell>
        <mxCell id="aauoK8OYN8aR4GPgjqtQ-21" value="&lt;font style=&quot;font-size: 30px;&quot; face=&quot;Times New Roman&quot;&gt;MaxPool&lt;/font&gt;" style="rounded=1;whiteSpace=wrap;html=1;fillColor=#D3C8D9;strokeColor=#9673a6;" vertex="1" parent="1">
          <mxGeometry x="1450" y="185" width="150" height="70" as="geometry" />
        </mxCell>
        <mxCell id="aauoK8OYN8aR4GPgjqtQ-30" style="edgeStyle=orthogonalEdgeStyle;rounded=0;orthogonalLoop=1;jettySize=auto;html=1;exitX=1;exitY=0.5;exitDx=0;exitDy=0;entryX=0;entryY=0.5;entryDx=0;entryDy=0;endArrow=none;endFill=0;" edge="1" parent="1">
          <mxGeometry relative="1" as="geometry">
            <mxPoint x="1600" y="313.5" as="sourcePoint" />
            <mxPoint x="1824" y="220.5" as="targetPoint" />
            <Array as="points">
              <mxPoint x="1650" y="314" />
              <mxPoint x="1650" y="221" />
            </Array>
          </mxGeometry>
        </mxCell>
        <mxCell id="aauoK8OYN8aR4GPgjqtQ-23" value="&lt;font style=&quot;font-size: 30px;&quot; face=&quot;Times New Roman&quot;&gt;MaxPool&lt;/font&gt;" style="rounded=1;whiteSpace=wrap;html=1;fillColor=#D3C8D9;strokeColor=#9673a6;" vertex="1" parent="1">
          <mxGeometry x="1450" y="277.5" width="150" height="70" as="geometry" />
        </mxCell>
        <mxCell id="aauoK8OYN8aR4GPgjqtQ-24" style="edgeStyle=orthogonalEdgeStyle;rounded=0;orthogonalLoop=1;jettySize=auto;html=1;exitX=0.5;exitY=0;exitDx=0;exitDy=0;entryX=0;entryY=0.5;entryDx=0;entryDy=0;" edge="1" parent="1" source="aauoK8OYN8aR4GPgjqtQ-7" target="aauoK8OYN8aR4GPgjqtQ-3">
          <mxGeometry relative="1" as="geometry" />
        </mxCell>
        <mxCell id="aauoK8OYN8aR4GPgjqtQ-25" style="edgeStyle=orthogonalEdgeStyle;rounded=0;orthogonalLoop=1;jettySize=auto;html=1;exitX=0.5;exitY=0;exitDx=0;exitDy=0;entryX=0;entryY=0.5;entryDx=0;entryDy=0;" edge="1" parent="1" source="aauoK8OYN8aR4GPgjqtQ-7" target="aauoK8OYN8aR4GPgjqtQ-17">
          <mxGeometry relative="1" as="geometry" />
        </mxCell>
        <mxCell id="aauoK8OYN8aR4GPgjqtQ-26" style="edgeStyle=orthogonalEdgeStyle;rounded=0;orthogonalLoop=1;jettySize=auto;html=1;exitX=0.5;exitY=0;exitDx=0;exitDy=0;entryX=0;entryY=0.5;entryDx=0;entryDy=0;" edge="1" parent="1" source="aauoK8OYN8aR4GPgjqtQ-7" target="aauoK8OYN8aR4GPgjqtQ-19">
          <mxGeometry relative="1" as="geometry" />
        </mxCell>
        <mxCell id="aauoK8OYN8aR4GPgjqtQ-27" value="&lt;span style=&quot;background-color: initial;&quot;&gt;&lt;font face=&quot;Times New Roman&quot; style=&quot;font-size: 25px;&quot;&gt;Concatenation&lt;/font&gt;&lt;/span&gt;" style="text;html=1;align=center;verticalAlign=middle;resizable=0;points=[];autosize=1;strokeColor=none;fillColor=none;flipV=0;" vertex="1" parent="1">
          <mxGeometry x="1654" y="180" width="170" height="40" as="geometry" />
        </mxCell>
      </root>
    </mxGraphModel>
  </diagram>
</mxfile>
